<?xml version="1.0" encoding="UTF-8" standalone="no"?>
<svg
   xmlns:osb="http://www.openswatchbook.org/uri/2009/osb"
   xmlns:dc="http://purl.org/dc/elements/1.1/"
   xmlns:cc="http://creativecommons.org/ns#"
   xmlns:rdf="http://www.w3.org/1999/02/22-rdf-syntax-ns#"
   xmlns:svg="http://www.w3.org/2000/svg"
   xmlns="http://www.w3.org/2000/svg"
   xmlns:sodipodi="http://sodipodi.sourceforge.net/DTD/sodipodi-0.dtd"
   xmlns:inkscape="http://www.inkscape.org/namespaces/inkscape"
   id="svg8"
   version="1.1"
   viewBox="0 0 47.377018 9.582029"
   height="36.216"
   width="179.065"
   inkscape:version="1.0.1 (3bc2e813f5, 2020-09-07)"
   sodipodi:docname="avalanche-title.svg">
  <defs
     id="defs2">
    <linearGradient
       id="linearGradient837"
       osb:paint="solid">
      <stop
         style="stop-color:#000000;stop-opacity:1;"
         offset="0"
         id="stop835" />
    </linearGradient>
  </defs>
  <sodipodi:namedview
     id="base"
     pagecolor="#ffffff"
     bordercolor="#666666"
     borderopacity="1.0"
     inkscape:pageopacity="0"
     inkscape:pageshadow="2"
     inkscape:zoom="4"
     inkscape:cx="30.702383"
     inkscape:cy="55.703524"
     inkscape:document-units="px"
     inkscape:current-layer="g918"
     inkscape:document-rotation="0"
     showgrid="false"
     inkscape:window-width="1920"
     inkscape:window-height="1017"
     inkscape:window-x="-8"
     inkscape:window-y="-8"
     inkscape:window-maximized="1"
     units="px"
     height="793.70079px"
     inkscape:pagecheckerboard="true"
     borderlayer="true"
     inkscape:showpageshadow="true"
     showborder="true"
     showguides="false"
     inkscape:object-paths="true"
     inkscape:snap-others="false"
     inkscape:snap-nodes="true"
     inkscape:snap-midpoints="true"
     inkscape:snap-global="true"
     inkscape:snap-page="false" />
  <metadata
     id="metadata5">
    <rdf:RDF>
      <cc:Work
         rdf:about="">
        <dc:format>image/svg+xml</dc:format>
        <dc:type
           rdf:resource="http://purl.org/dc/dcmitype/StillImage" />
        <dc:title></dc:title>
      </cc:Work>
    </rdf:RDF>
  </metadata>
  <g
     inkscape:label="Layer 1"
     inkscape:groupmode="layer"
     id="layer1">
    <g
       id="g918"
       transform="matrix(1.0460025,0,0,1.0460025,-12.74072,-9.4514556)">
      <text
         xml:space="preserve"
         style="font-style:normal;font-weight:normal;font-size:10.1178px;line-height:1.25;font-family:sans-serif;fill:#000000;fill-opacity:1;stroke:none;stroke-width:0.252944"
         x="-19.817019"
         y="22.821232"
         id="text2881"><tspan
           sodipodi:role="line"
           id="tspan2879"
           x="-19.817019"
           y="22.821232"
           style="stroke-width:0.252944" /></text>
      <path
         d="m 21.479476,12.628869 v 0.242076 q -0.227255,0.05434 -0.321122,0.103747 -0.09387,0.0494 -0.143269,0.128449 -0.04446,0.07905 -0.04446,0.212434 0,0.133389 0.02964,0.281599 0.03458,0.14327 0.103747,0.335943 l 0.859617,2.499808 1.007828,-2.396061 q 0.09881,-0.237136 0.138329,-0.390287 0.03952,-0.15315 0.03952,-0.286539 0,-0.207494 -0.113628,-0.316181 -0.108687,-0.108687 -0.405107,-0.172912 v -0.242076 h 1.847684 v 0.242076 q -0.192673,0.03952 -0.29642,0.123509 -0.103747,0.07905 -0.207494,0.256897 -0.103746,0.172911 -0.247016,0.489093 l -1.664892,3.660786 h -0.582959 l -1.33883,-3.690428 q -0.138329,-0.380406 -0.222315,-0.518735 -0.07905,-0.14327 -0.177852,-0.212434 -0.09387,-0.06916 -0.276659,-0.108688 v -0.242076 z"
         style="font-style:normal;font-variant:normal;font-weight:normal;font-stretch:normal;font-size:10.1178px;line-height:1.25;font-family:'Cambria Math';-inkscape-font-specification:'Cambria Math, Normal';font-variant-ligatures:normal;font-variant-caps:normal;font-variant-numeric:normal;font-variant-east-asian:normal;fill:#ffffff;fill-opacity:1;stroke:none;stroke-width:0.25294394;stroke-miterlimit:4;stroke-dasharray:none;stroke-linecap:square"
         id="path2913" />
      <path
         d="m 27.585726,16.645359 -0.07411,-0.01976 q -0.429808,0.43969 -0.810214,0.622482 -0.375465,0.182793 -0.800334,0.182793 -0.375465,0 -0.662004,-0.14327 -0.28654,-0.14821 -0.43969,-0.410048 -0.15315,-0.266778 -0.15315,-0.612601 0,-0.721288 0.711408,-1.111574 0.716348,-0.395227 2.144104,-0.459451 v -0.321122 q 0,-0.513794 -0.09881,-0.810214 -0.09881,-0.29642 -0.311241,-0.43475 -0.212434,-0.138329 -0.568138,-0.138329 -0.385346,0 -0.622482,0.202554 -0.232195,0.202553 -0.350763,0.607661 h -0.647184 v -0.642244 q 0.474272,-0.247016 0.790453,-0.360644 0.316181,-0.118568 0.632363,-0.182792 0.316181,-0.06916 0.642243,-0.06916 0.489093,0 0.785513,0.158091 0.29642,0.15315 0.44463,0.474272 0.148209,0.321121 0.148209,0.968305 v 1.719235 q 0,0.365585 0.0049,0.518735 0.0049,0.14821 0.02964,0.276659 0.0247,0.128448 0.0741,0.207494 0.0494,0.0741 0.143269,0.128448 0.09881,0.05434 0.316182,0.113628 v 0.242076 h -1.353651 z m -0.08398,-1.546324 q -1.002888,0.0099 -1.501861,0.266778 -0.498974,0.256897 -0.498974,0.775632 0,0.281599 0.113628,0.44463 0.113628,0.163031 0.286539,0.227255 0.172912,0.05928 0.410048,0.05928 0.335942,0 0.607661,-0.163031 0.276658,-0.163031 0.429808,-0.414988 0.153151,-0.251957 0.153151,-0.498973 z"
         style="font-style:normal;font-variant:normal;font-weight:normal;font-stretch:normal;font-size:10.1178px;line-height:1.25;font-family:'Cambria Math';-inkscape-font-specification:'Cambria Math, Normal';font-variant-ligatures:normal;font-variant-caps:normal;font-variant-numeric:normal;font-variant-east-asian:normal;fill:#ffffff;fill-opacity:1;stroke:none;stroke-width:0.25294394;stroke-miterlimit:4;stroke-dasharray:none;stroke-linecap:square"
         id="path2915" />
      <path
         d="m 30.989615,16.116743 q 0,0.424869 0.03952,0.59284 0.03952,0.163031 0.14821,0.251957 0.113628,0.08399 0.365585,0.14821 v 0.242076 H 29.58162 V 17.10975 q 0.247017,-0.06422 0.340883,-0.133389 0.09881,-0.06916 0.138329,-0.163031 0.04446,-0.09881 0.05928,-0.261837 0.01976,-0.167972 0.01976,-0.43475 v -4.135058 q 0,-0.474271 -0.0099,-0.662004 -0.0049,-0.187733 -0.03952,-0.316181 -0.02964,-0.133389 -0.08893,-0.207494 -0.05434,-0.0741 -0.15315,-0.118568 -0.09387,-0.04446 -0.345823,-0.08893 v -0.256897 l 1.19062,-0.0494 h 0.29642 z"
         style="font-style:normal;font-variant:normal;font-weight:normal;font-stretch:normal;font-size:10.1178px;line-height:1.25;font-family:'Cambria Math';-inkscape-font-specification:'Cambria Math, Normal';font-variant-ligatures:normal;font-variant-caps:normal;font-variant-numeric:normal;font-variant-east-asian:normal;fill:#ffffff;fill-opacity:1;stroke:none;stroke-width:0.25294394;stroke-miterlimit:4;stroke-dasharray:none;stroke-linecap:square"
         id="path2917" />
      <path
         d="m 35.272883,16.645359 -0.0741,-0.01976 q -0.429809,0.43969 -0.810214,0.622482 -0.375466,0.182793 -0.800334,0.182793 -0.375465,0 -0.662005,-0.14327 -0.286539,-0.14821 -0.439689,-0.410048 -0.15315,-0.266778 -0.15315,-0.612601 0,-0.721288 0.711407,-1.111574 0.716348,-0.395227 2.144104,-0.459451 v -0.321122 q 0,-0.513794 -0.09881,-0.810214 -0.09881,-0.29642 -0.311241,-0.43475 -0.212434,-0.138329 -0.568138,-0.138329 -0.385346,0 -0.622482,0.202554 -0.232196,0.202553 -0.350764,0.607661 h -0.647183 v -0.642244 q 0.474272,-0.247016 0.790453,-0.360644 0.316181,-0.118568 0.632362,-0.182792 0.316182,-0.06916 0.642244,-0.06916 0.489092,0 0.785512,0.158091 0.29642,0.15315 0.44463,0.474272 0.14821,0.321121 0.14821,0.968305 v 1.719235 q 0,0.365585 0.0049,0.518735 0.0049,0.14821 0.02964,0.276659 0.0247,0.128448 0.0741,0.207494 0.0494,0.0741 0.14327,0.128448 0.09881,0.05434 0.316181,0.113628 v 0.242076 h -1.353651 z m -0.08399,-1.546324 q -1.002887,0.0099 -1.50186,0.266778 -0.498974,0.256897 -0.498974,0.775632 0,0.281599 0.113628,0.44463 0.113627,0.163031 0.286539,0.227255 0.172911,0.05928 0.410047,0.05928 0.335943,0 0.607661,-0.163031 0.276659,-0.163031 0.429809,-0.414988 0.15315,-0.251957 0.15315,-0.498973 z"
         style="font-style:normal;font-variant:normal;font-weight:normal;font-stretch:normal;font-size:10.1178px;line-height:1.25;font-family:'Cambria Math';-inkscape-font-specification:'Cambria Math, Normal';font-variant-ligatures:normal;font-variant-caps:normal;font-variant-numeric:normal;font-variant-east-asian:normal;fill:#ffffff;fill-opacity:1;stroke:none;stroke-width:0.25294394;stroke-miterlimit:4;stroke-dasharray:none;stroke-linecap:square"
         id="path2919" />
      <path
         d="M 42.169585,17.351826 H 40.223094 V 17.10975 q 0.192673,-0.05928 0.276659,-0.103747 0.08399,-0.04446 0.138329,-0.123508 0.05928,-0.07905 0.08893,-0.242077 0.03458,-0.167971 0.03458,-0.503913 v -1.294367 q 0,-0.345824 -0.01976,-0.627422 -0.01976,-0.281599 -0.06917,-0.459451 -0.04446,-0.182793 -0.113627,-0.281599 -0.06423,-0.103747 -0.158091,-0.172912 -0.08893,-0.0741 -0.207494,-0.113628 -0.118568,-0.04446 -0.311241,-0.04446 -0.192673,0 -0.365584,0.07905 -0.172912,0.0741 -0.380406,0.261837 -0.207494,0.187733 -0.30136,0.370525 -0.09387,0.182793 -0.09387,0.419928 v 1.842744 q 0,0.424869 0.03952,0.59284 0.03952,0.163031 0.14821,0.251957 0.113628,0.08399 0.365585,0.14821 v 0.242076 h -1.93661 V 17.10975 q 0.192673,-0.05928 0.271718,-0.103747 0.08399,-0.04446 0.138329,-0.123508 0.05928,-0.07905 0.08893,-0.242077 0.03458,-0.16303 0.03458,-0.508854 V 13.97758 q 0,-0.316182 -0.0099,-0.508855 -0.0099,-0.192673 -0.06916,-0.3063 -0.05928,-0.118568 -0.182792,-0.172912 -0.118568,-0.05928 -0.340883,-0.09881 v -0.261838 l 1.156038,-0.04446 h 0.30136 l -0.05434,0.805274 0.06916,0.01976 q 0.365585,-0.370524 0.587899,-0.528615 0.227256,-0.158091 0.454511,-0.242076 0.232196,-0.08893 0.489093,-0.08893 0.266778,0 0.474272,0.06422 0.212434,0.05928 0.370525,0.187733 0.163031,0.128448 0.266778,0.321121 0.103747,0.187733 0.15315,0.454511 0.05434,0.266778 0.05434,0.676825 v 1.862505 q 0,0.340883 0.01976,0.494033 0.01976,0.153151 0.06916,0.237136 0.0494,0.08399 0.14327,0.14327 0.09387,0.05434 0.326062,0.118568 z"
         style="font-style:normal;font-variant:normal;font-weight:normal;font-stretch:normal;font-size:10.1178px;line-height:1.25;font-family:'Cambria Math';-inkscape-font-specification:'Cambria Math, Normal';font-variant-ligatures:normal;font-variant-caps:normal;font-variant-numeric:normal;font-variant-east-asian:normal;fill:#ffffff;fill-opacity:1;stroke:none;stroke-width:0.25294394;stroke-miterlimit:4;stroke-dasharray:none;stroke-linecap:square"
         id="path2921" />
      <path
         d="m 46.68505,12.742497 v 1.032529 h -0.627422 q -0.08399,-0.321122 -0.207494,-0.503914 -0.123508,-0.187733 -0.286539,-0.261837 -0.163031,-0.07411 -0.405108,-0.07411 -0.345823,0 -0.612601,0.222314 -0.266778,0.222315 -0.424868,0.676826 -0.153151,0.45451 -0.153151,1.111575 0,0.419928 0.05928,0.770691 0.05928,0.345824 0.202554,0.59284 0.14327,0.247017 0.380406,0.385346 0.237136,0.138329 0.587899,0.138329 0.340883,0 0.632363,-0.133389 0.296419,-0.133389 0.612601,-0.469331 l 0.281599,0.326062 q -0.251957,0.276658 -0.44463,0.429809 -0.192673,0.14821 -0.414988,0.251957 -0.217375,0.09881 -0.434749,0.143269 -0.212435,0.0494 -0.464392,0.0494 -0.933722,0 -1.427755,-0.617542 -0.494034,-0.622482 -0.494034,-1.79334 0,-0.73117 0.276659,-1.294367 0.276659,-0.568139 0.775632,-0.874439 0.498974,-0.306301 1.151097,-0.306301 0.405108,0 0.745991,0.0494 0.345823,0.04446 0.691646,0.14821 z"
         style="font-style:normal;font-variant:normal;font-weight:normal;font-stretch:normal;font-size:10.1178px;line-height:1.25;font-family:'Cambria Math';-inkscape-font-specification:'Cambria Math, Normal';font-variant-ligatures:normal;font-variant-caps:normal;font-variant-numeric:normal;font-variant-east-asian:normal;fill:#ffffff;fill-opacity:1;stroke:none;stroke-width:0.25294394;stroke-miterlimit:4;stroke-dasharray:none;stroke-linecap:square"
         id="path2923" />
      <path
         d="m 48.789632,13.404501 0.01976,0.0049 q 0.385345,-0.390286 0.60766,-0.543436 0.227256,-0.158091 0.44463,-0.237136 0.222315,-0.07905 0.474272,-0.07905 0.271718,0 0.484153,0.06422 0.212434,0.06422 0.370525,0.197613 0.163031,0.128449 0.261837,0.321122 0.103747,0.187732 0.15315,0.45451 0.0494,0.261838 0.0494,0.666945 v 1.862505 q 0,0.429809 0.03458,0.5879 0.03952,0.15315 0.133389,0.242076 0.09881,0.08399 0.390286,0.163031 v 0.242076 h -1.94649 V 17.10975 q 0.192672,-0.05928 0.276658,-0.103747 0.08399,-0.04446 0.138329,-0.123508 0.05928,-0.07905 0.08893,-0.242077 0.03458,-0.167971 0.03458,-0.503913 v -1.294367 q 0,-0.657064 -0.06917,-1.002888 -0.06422,-0.350763 -0.261838,-0.523675 -0.192672,-0.172912 -0.543436,-0.172912 -0.197613,0 -0.355704,0.06916 -0.158091,0.06917 -0.365585,0.247017 -0.207493,0.177852 -0.316181,0.365584 -0.103747,0.187733 -0.103747,0.400167 v 1.892147 q 0,0.335943 0.01482,0.479212 0.01976,0.14327 0.06916,0.242077 0.0494,0.09387 0.14821,0.15809 0.103747,0.05928 0.316181,0.113628 v 0.242076 H 47.381638 V 17.10975 q 0.217374,-0.05928 0.311241,-0.113628 0.09387,-0.05434 0.143269,-0.138329 0.05434,-0.08399 0.07905,-0.242076 0.0247,-0.158091 0.0247,-0.498974 v -4.135058 q 0,-0.474271 -0.0099,-0.662004 -0.0049,-0.187733 -0.03952,-0.316181 -0.02964,-0.133389 -0.08893,-0.207494 -0.05434,-0.0741 -0.15315,-0.118568 -0.09387,-0.04446 -0.345824,-0.08893 v -0.256897 l 1.19062,-0.0494 h 0.29642 z"
         style="font-style:normal;font-variant:normal;font-weight:normal;font-stretch:normal;font-size:10.1178px;line-height:1.25;font-family:'Cambria Math';-inkscape-font-specification:'Cambria Math, Normal';font-variant-ligatures:normal;font-variant-caps:normal;font-variant-numeric:normal;font-variant-east-asian:normal;fill:#ffffff;fill-opacity:1;stroke:none;stroke-width:0.25294394;stroke-miterlimit:4;stroke-dasharray:none;stroke-linecap:square"
         id="path2925" />
      <path
         d="m 56.995521,16.51197 q -0.316181,0.331002 -0.582959,0.518735 -0.261837,0.187732 -0.578019,0.29642 -0.316181,0.103747 -0.696586,0.103747 -1.017709,0 -1.536444,-0.607661 -0.518734,-0.612601 -0.518734,-1.803221 0,-0.73611 0.261837,-1.299308 0.266778,-0.563198 0.755871,-0.869498 0.489093,-0.306301 1.126396,-0.306301 0.498973,0 0.849737,0.158091 0.350763,0.158091 0.558257,0.434749 0.212434,0.271718 0.326062,0.691647 0.118568,0.414987 0.133389,1.086873 h -3.112409 v 0.08893 q 0,0.582959 0.128449,0.983126 0.133389,0.395226 0.429808,0.622481 0.301361,0.222315 0.780573,0.222315 0.405107,0 0.726229,-0.14821 0.326062,-0.15315 0.647183,-0.494033 z m -0.829975,-2.005775 q -0.02964,-0.533556 -0.133389,-0.869498 -0.103747,-0.340883 -0.311241,-0.518735 -0.207494,-0.182792 -0.543437,-0.182792 -0.508854,0 -0.815154,0.410047 -0.301361,0.405107 -0.355704,1.160978 z"
         style="font-style:normal;font-variant:normal;font-weight:normal;font-stretch:normal;font-size:10.1178px;line-height:1.25;font-family:'Cambria Math';-inkscape-font-specification:'Cambria Math, Normal';font-variant-ligatures:normal;font-variant-caps:normal;font-variant-numeric:normal;font-variant-east-asian:normal;fill:#ffffff;fill-opacity:1;stroke:none;stroke-width:0.25294394;stroke-miterlimit:4;stroke-dasharray:none;stroke-linecap:square"
         id="path2927" />
      <path
         id="rect3235"
         style="fill:#000000;fill-opacity:1;stroke:none;stroke-width:0.542655;stroke-linecap:square;stroke-linejoin:round;stroke-opacity:1;paint-order:markers fill stroke"
         d="m 16.75302,9.4848455 2.731128,7.9613275 h -5.462256 z"
         sodipodi:nodetypes="cccc" />
      <path
         style="fill:#f4f4f4;fill-opacity:1;stroke:none;stroke-width:0.213109px;stroke-linecap:butt;stroke-linejoin:miter;stroke-opacity:1"
         d="m 16.742171,9.9002626 -0.92844,2.7064364 0.249858,0.249264 0.320219,-0.1036 0.113017,-0.216618 0.386146,0.291964 0.244874,-0.113018 0.226036,0.160109 0.338428,-0.204852 z"
         id="path3238" />
    </g>
  </g>
</svg>
