<?xml version="1.0" encoding="UTF-8" standalone="no"?>
<svg
   xmlns:osb="http://www.openswatchbook.org/uri/2009/osb"
   xmlns:dc="http://purl.org/dc/elements/1.1/"
   xmlns:cc="http://creativecommons.org/ns#"
   xmlns:rdf="http://www.w3.org/1999/02/22-rdf-syntax-ns#"
   xmlns:svg="http://www.w3.org/2000/svg"
   xmlns="http://www.w3.org/2000/svg"
   xmlns:sodipodi="http://sodipodi.sourceforge.net/DTD/sodipodi-0.dtd"
   xmlns:inkscape="http://www.inkscape.org/namespaces/inkscape"
   id="svg8"
   version="1.1"
   viewBox="0 0 67.73248 67.73248"
   height="256"
   width="256"
   inkscape:version="1.0.1 (3bc2e813f5, 2020-09-07)"
   sodipodi:docname="reason-logical.svg">
  <defs
     id="defs2">
    <inkscape:perspective
       sodipodi:type="inkscape:persp3d"
       inkscape:vp_x="0 : 47.88898 : 1"
       inkscape:vp_y="0 : 1000 : 0"
       inkscape:vp_z="71.4366 : 47.88898 : 1"
       inkscape:persp3d-origin="35.7183 : 41.27448 : 1"
       id="perspective1714" />
    <linearGradient
       id="linearGradient837"
       osb:paint="solid">
      <stop
         style="stop-color:#000000;stop-opacity:1;"
         offset="0"
         id="stop835" />
    </linearGradient>
  </defs>
  <sodipodi:namedview
     id="base"
     pagecolor="#ffffff"
     bordercolor="#666666"
     borderopacity="1.0"
     inkscape:pageopacity="0"
     inkscape:pageshadow="2"
     inkscape:zoom="7.2407734"
     inkscape:cx="210.56352"
     inkscape:cy="127.23499"
     inkscape:document-units="px"
     inkscape:current-layer="g918"
     inkscape:document-rotation="0"
     showgrid="false"
     inkscape:window-width="1920"
     inkscape:window-height="1017"
     inkscape:window-x="-8"
     inkscape:window-y="-8"
     inkscape:window-maximized="1"
     units="px"
     height="793.70079px"
     inkscape:pagecheckerboard="true"
     borderlayer="true"
     inkscape:showpageshadow="true"
     showborder="true"
     showguides="false"
     inkscape:object-paths="true"
     inkscape:snap-midpoints="true"
     inkscape:snap-smooth-nodes="true"
     inkscape:snap-global="false"
     inkscape:snap-page="true"
     inkscape:snap-object-midpoints="true"
     inkscape:snap-bbox="false"
     inkscape:snap-bbox-edge-midpoints="false"
     inkscape:snap-intersection-paths="true" />
  <metadata
     id="metadata5">
    <rdf:RDF>
      <cc:Work
         rdf:about="">
        <dc:format>image/svg+xml</dc:format>
        <dc:type
           rdf:resource="http://purl.org/dc/dcmitype/StillImage" />
        <dc:title />
      </cc:Work>
    </rdf:RDF>
  </metadata>
  <g
     inkscape:label="Layer 1"
     inkscape:groupmode="layer"
     id="layer1">
    <g
       id="g918"
       transform="matrix(1.0460025,0,0,1.0460025,-12.74072,-9.4514556)">
      <g
         id="g1026" />
      <g
         id="g2296"
         transform="matrix(1.4405582,0,0,1.4405582,200.1028,-12.118206)" />
      <g
         id="g1696"
         transform="translate(-90.111281,-0.19761246)">
        <rect
           style="fill:#ffffff;fill-opacity:1;stroke:none;stroke-width:0.999887;stroke-linecap:square;stroke-linejoin:miter;stroke-miterlimit:4;stroke-dasharray:none;stroke-opacity:1;paint-order:markers fill stroke"
           id="rect3304"
           width="30.685963"
           height="18.138765"
           x="29.21516"
           y="14.672761" />
        <rect
           style="fill:none;fill-opacity:1;stroke:#000000;stroke-width:0.83203;stroke-linecap:square;stroke-linejoin:miter;stroke-miterlimit:4;stroke-dasharray:none;stroke-opacity:1;paint-order:markers fill stroke"
           id="rect2011"
           width="10.261191"
           height="18.138765"
           x="29.21516"
           y="14.672761" />
        <g
           id="g2021"
           transform="matrix(1.4819103,0,0,1.4819103,198.16554,-14.324289)"
           style="stroke:#000000;stroke-opacity:1">
          <rect
             style="opacity:1;fill:#000000;fill-opacity:1;stroke:#000000;stroke-width:0.215995;stroke-linecap:square;stroke-linejoin:miter;stroke-miterlimit:4;stroke-dasharray:none;stroke-opacity:1;paint-order:markers fill stroke"
             id="rect2013"
             width="3.5781636"
             height="0.53988123"
             x="-112.33543"
             y="22.766985"
             ry="0.26994061" />
          <rect
             style="opacity:1;fill:#000000;fill-opacity:1;stroke:#000000;stroke-width:0.215995;stroke-linecap:square;stroke-linejoin:miter;stroke-miterlimit:4;stroke-dasharray:none;stroke-opacity:1;paint-order:markers fill stroke"
             id="rect2015"
             width="3.5781636"
             height="0.53988123"
             x="-112.33543"
             y="25.24559"
             ry="0.26994061" />
          <rect
             style="opacity:1;fill:#000000;fill-opacity:1;stroke:#000000;stroke-width:0.215995;stroke-linecap:square;stroke-linejoin:miter;stroke-miterlimit:4;stroke-dasharray:none;stroke-opacity:1;paint-order:markers fill stroke"
             id="rect2017"
             width="3.5781636"
             height="0.53988123"
             x="-112.33543"
             y="27.724199"
             ry="0.26994061" />
          <rect
             style="opacity:1;fill:#000000;fill-opacity:1;stroke:#000000;stroke-width:0.215995;stroke-linecap:square;stroke-linejoin:miter;stroke-miterlimit:4;stroke-dasharray:none;stroke-opacity:1;paint-order:markers fill stroke"
             id="rect2019"
             width="3.5781636"
             height="0.53988123"
             x="-112.33543"
             y="30.202812"
             ry="0.26994061" />
        </g>
        <rect
           style="fill:#000000;fill-opacity:1;stroke:#000000;stroke-width:0.230784;stroke-linecap:square;stroke-linejoin:miter;stroke-miterlimit:4;stroke-dasharray:none;stroke-opacity:1;paint-order:markers fill stroke"
           id="rect2023"
           width="10.16357"
           height="0.70631605"
           x="29.263981"
           y="17.601862"
           ry="0.30270684" />
        <g
           id="g2137"
           style="stroke:#000000;stroke-opacity:1"
           transform="matrix(1.4819103,0,0,1.4819103,181.25958,-22.949826)">
          <rect
             style="opacity:1;fill:none;fill-opacity:1;stroke:#000000;stroke-width:0.561458;stroke-linecap:square;stroke-linejoin:miter;stroke-miterlimit:4;stroke-dasharray:none;stroke-opacity:1;paint-order:markers fill stroke"
             id="rect2123"
             width="6.9243002"
             height="12.240124"
             x="-95.741852"
             y="25.387897" />
          <g
             id="g2133"
             transform="translate(18.266649,5.8205528)"
             style="stroke:#000000;stroke-opacity:1">
            <rect
               style="opacity:1;fill:#000000;fill-opacity:1;stroke:#000000;stroke-width:0.215995;stroke-linecap:square;stroke-linejoin:miter;stroke-miterlimit:4;stroke-dasharray:none;stroke-opacity:1;paint-order:markers fill stroke"
               id="rect2125"
               width="3.5781636"
               height="0.53988123"
               x="-112.33543"
               y="22.766985"
               ry="0.26994061" />
            <rect
               style="opacity:1;fill:#000000;fill-opacity:1;stroke:#000000;stroke-width:0.215995;stroke-linecap:square;stroke-linejoin:miter;stroke-miterlimit:4;stroke-dasharray:none;stroke-opacity:1;paint-order:markers fill stroke"
               id="rect2127"
               width="3.5781636"
               height="0.53988123"
               x="-112.33543"
               y="25.24559"
               ry="0.26994061" />
            <rect
               style="opacity:1;fill:#000000;fill-opacity:1;stroke:#000000;stroke-width:0.215995;stroke-linecap:square;stroke-linejoin:miter;stroke-miterlimit:4;stroke-dasharray:none;stroke-opacity:1;paint-order:markers fill stroke"
               id="rect2129"
               width="3.5781636"
               height="0.53988123"
               x="-112.33543"
               y="27.724199"
               ry="0.26994061" />
            <rect
               style="opacity:1;fill:#000000;fill-opacity:1;stroke:#000000;stroke-width:0.215995;stroke-linecap:square;stroke-linejoin:miter;stroke-miterlimit:4;stroke-dasharray:none;stroke-opacity:1;paint-order:markers fill stroke"
               id="rect2131"
               width="3.5781636"
               height="0.53988123"
               x="-112.33543"
               y="30.202812"
               ry="0.26994061" />
          </g>
          <rect
             style="opacity:1;fill:#000000;fill-opacity:1;stroke:#000000;stroke-width:0.155734;stroke-linecap:square;stroke-linejoin:miter;stroke-miterlimit:4;stroke-dasharray:none;stroke-opacity:1;paint-order:markers fill stroke"
             id="rect2135"
             width="6.8584251"
             height="0.47662538"
             x="-95.708908"
             y="27.36447"
             ry="0.20426799" />
        </g>
        <g
           id="g2155"
           style="stroke:#000000;stroke-opacity:1"
           transform="matrix(1.4819103,0,0,1.4819103,191.52077,-22.949826)">
          <rect
             style="opacity:1;fill:none;fill-opacity:1;stroke:#000000;stroke-width:0.561458;stroke-linecap:square;stroke-linejoin:miter;stroke-miterlimit:4;stroke-dasharray:none;stroke-opacity:1;paint-order:markers fill stroke"
             id="rect2141"
             width="6.9243002"
             height="12.240124"
             x="-95.741852"
             y="25.387897" />
          <g
             id="g2151"
             transform="translate(18.266649,5.8205528)"
             style="stroke:#000000;stroke-opacity:1">
            <rect
               style="opacity:1;fill:#000000;fill-opacity:1;stroke:#000000;stroke-width:0.215995;stroke-linecap:square;stroke-linejoin:miter;stroke-miterlimit:4;stroke-dasharray:none;stroke-opacity:1;paint-order:markers fill stroke"
               id="rect2143"
               width="3.5781636"
               height="0.53988123"
               x="-112.33543"
               y="22.766985"
               ry="0.26994061" />
            <rect
               style="opacity:1;fill:#000000;fill-opacity:1;stroke:#000000;stroke-width:0.215995;stroke-linecap:square;stroke-linejoin:miter;stroke-miterlimit:4;stroke-dasharray:none;stroke-opacity:1;paint-order:markers fill stroke"
               id="rect2145"
               width="3.5781636"
               height="0.53988123"
               x="-112.33543"
               y="25.24559"
               ry="0.26994061" />
            <rect
               style="opacity:1;fill:#000000;fill-opacity:1;stroke:#000000;stroke-width:0.215995;stroke-linecap:square;stroke-linejoin:miter;stroke-miterlimit:4;stroke-dasharray:none;stroke-opacity:1;paint-order:markers fill stroke"
               id="rect2147"
               width="3.5781636"
               height="0.53988123"
               x="-112.33543"
               y="27.724199"
               ry="0.26994061" />
            <rect
               style="opacity:1;fill:#000000;fill-opacity:1;stroke:#000000;stroke-width:0.215995;stroke-linecap:square;stroke-linejoin:miter;stroke-miterlimit:4;stroke-dasharray:none;stroke-opacity:1;paint-order:markers fill stroke"
               id="rect2149"
               width="3.5781636"
               height="0.53988123"
               x="-112.33543"
               y="30.202812"
               ry="0.26994061" />
          </g>
          <rect
             style="opacity:1;fill:#000000;fill-opacity:1;stroke:#000000;stroke-width:0.155734;stroke-linecap:square;stroke-linejoin:miter;stroke-miterlimit:4;stroke-dasharray:none;stroke-opacity:1;paint-order:markers fill stroke"
             id="rect2153"
             width="6.8584251"
             height="0.47662538"
             x="-95.708908"
             y="27.36447"
             ry="0.20426799" />
        </g>
        <path
           id="path1825"
           style="fill:#ffffff;fill-opacity:1;stroke:#000000;stroke-width:0.63236;stroke-linecap:square;stroke-linejoin:miter;stroke-miterlimit:4;stroke-dasharray:none;stroke-opacity:1;paint-order:markers fill stroke"
           d="m 36.925954,34.420056 -3.617241,13.498613 -1.696852,-0.454696 2.122081,3.676174 3.676174,-2.122591 -1.696852,-0.454693 3.616734,-13.498611 z" />
        <path
           id="path2284"
           style="fill:#ffffff;fill-opacity:1;stroke:#000000;stroke-width:0.63236;stroke-linecap:square;stroke-linejoin:miter;stroke-miterlimit:4;stroke-dasharray:none;stroke-opacity:1;paint-order:markers fill stroke"
           d="m 52.237919,34.651795 -2.337754,0.626433 3.517006,13.126408 -1.650062,0.442156 3.574316,2.064063 2.06406,-3.574809 -1.650558,0.442159 z" />
        <rect
           style="fill:#ffffff;fill-opacity:1;stroke:none;stroke-width:0.999887;stroke-linecap:square;stroke-linejoin:miter;stroke-miterlimit:4;stroke-dasharray:none;stroke-opacity:1;paint-order:markers fill stroke"
           id="rect3306"
           width="19.930759"
           height="14.367714"
           x="16.403532"
           y="52.715427" />
        <g
           id="g2268"
           transform="matrix(1.4405582,0,0,1.4405582,163.72434,-12.118206)">
          <path
             id="rect2260"
             style="fill:#000000;fill-opacity:1;stroke:#000000;stroke-width:0.215995;stroke-linecap:square;stroke-linejoin:miter;stroke-miterlimit:4;stroke-dasharray:none;stroke-opacity:1;paint-order:markers fill stroke"
             d="m -100.29709,48.328365 h 3.038281 c 0.149547,0 0.269941,0.120394 0.269941,0.269941 0,0.149547 -0.120394,0.269941 -0.269941,0.269941 h -3.038281 c -0.14955,0 -0.26994,-0.120394 -0.26994,-0.269941 0,-0.149547 0.12039,-0.269941 0.26994,-0.269941 z" />
          <path
             id="rect2262"
             style="fill:#000000;fill-opacity:1;stroke:#000000;stroke-width:0.215995;stroke-linecap:square;stroke-linejoin:miter;stroke-miterlimit:4;stroke-dasharray:none;stroke-opacity:1;paint-order:markers fill stroke"
             d="m -100.29709,50.806973 h 3.038281 c 0.149547,0 0.269941,0.120393 0.269941,0.26994 0,0.149547 -0.120394,0.269941 -0.269941,0.269941 h -3.038281 c -0.14955,0 -0.26994,-0.120394 -0.26994,-0.269941 0,-0.149547 0.12039,-0.26994 0.26994,-0.26994 z" />
          <path
             id="rect2264"
             style="fill:#000000;fill-opacity:1;stroke:#000000;stroke-width:0.215995;stroke-linecap:square;stroke-linejoin:miter;stroke-miterlimit:4;stroke-dasharray:none;stroke-opacity:1;paint-order:markers fill stroke"
             d="m -100.29709,53.28558 h 3.038281 c 0.149547,0 0.269941,0.120393 0.269941,0.26994 0,0.149547 -0.120394,0.269941 -0.269941,0.269941 h -3.038281 c -0.14955,0 -0.26994,-0.120394 -0.26994,-0.269941 0,-0.149547 0.12039,-0.26994 0.26994,-0.26994 z" />
          <path
             id="rect2266"
             style="fill:#000000;fill-opacity:1;stroke:#000000;stroke-width:0.155734;stroke-linecap:square;stroke-linejoin:miter;stroke-miterlimit:4;stroke-dasharray:none;stroke-opacity:1;paint-order:markers fill stroke"
             d="m -102.0029,47.008835 h 6.449889 c 0.113164,0 0.204268,0.0911 0.204268,0.204268 v 0.06809 c 0,0.113165 -0.0911,0.204268 -0.204268,0.204268 h -6.449889 c -0.11317,0 -0.20427,-0.0911 -0.20427,-0.204268 v -0.06809 c 0,-0.113165 0.0911,-0.204268 0.20427,-0.204268 z" />
        </g>
        <g
           id="g2280"
           transform="matrix(1.4405582,0,0,1.4405582,173.60431,-12.118206)">
          <path
             id="rect2272"
             style="fill:#000000;fill-opacity:1;stroke:#000000;stroke-width:0.215995;stroke-linecap:square;stroke-linejoin:miter;stroke-miterlimit:4;stroke-dasharray:none;stroke-opacity:1;paint-order:markers fill stroke"
             d="m -100.29709,48.328365 h 3.038281 c 0.149547,0 0.269941,0.120394 0.269941,0.269941 0,0.149547 -0.120394,0.269941 -0.269941,0.269941 h -3.038281 c -0.14955,0 -0.26994,-0.120394 -0.26994,-0.269941 0,-0.149547 0.12039,-0.269941 0.26994,-0.269941 z" />
          <path
             id="rect2274"
             style="fill:#000000;fill-opacity:1;stroke:#000000;stroke-width:0.215995;stroke-linecap:square;stroke-linejoin:miter;stroke-miterlimit:4;stroke-dasharray:none;stroke-opacity:1;paint-order:markers fill stroke"
             d="m -100.29709,50.806973 h 3.038281 c 0.149547,0 0.269941,0.120393 0.269941,0.26994 0,0.149547 -0.120394,0.269941 -0.269941,0.269941 h -3.038281 c -0.14955,0 -0.26994,-0.120394 -0.26994,-0.269941 0,-0.149547 0.12039,-0.26994 0.26994,-0.26994 z" />
          <path
             id="rect2276"
             style="fill:#000000;fill-opacity:1;stroke:#000000;stroke-width:0.215995;stroke-linecap:square;stroke-linejoin:miter;stroke-miterlimit:4;stroke-dasharray:none;stroke-opacity:1;paint-order:markers fill stroke"
             d="m -100.29709,53.28558 h 3.038281 c 0.149547,0 0.269941,0.120393 0.269941,0.26994 0,0.149547 -0.120394,0.269941 -0.269941,0.269941 h -3.038281 c -0.14955,0 -0.26994,-0.120394 -0.26994,-0.269941 0,-0.149547 0.12039,-0.26994 0.26994,-0.26994 z" />
          <path
             id="rect2278"
             style="fill:#000000;fill-opacity:1;stroke:#000000;stroke-width:0.155734;stroke-linecap:square;stroke-linejoin:miter;stroke-miterlimit:4;stroke-dasharray:none;stroke-opacity:1;paint-order:markers fill stroke"
             d="m -102.0029,47.008835 h 6.449889 c 0.113164,0 0.204268,0.0911 0.204268,0.204268 v 0.06809 c 0,0.113165 -0.0911,0.204268 -0.204268,0.204268 h -6.449889 c -0.11317,0 -0.20427,-0.0911 -0.20427,-0.204268 v -0.06809 c 0,-0.113165 0.0911,-0.204268 0.20427,-0.204268 z" />
        </g>
        <g
           id="g2886"
           transform="matrix(1.4405582,0,0,1.4405582,209.98277,-12.118206)">
          <path
             id="rect2258"
             style="fill:none;fill-opacity:1;stroke:#000000;stroke-width:0.561536;stroke-linecap:square;stroke-linejoin:miter;stroke-miterlimit:4;stroke-dasharray:none;stroke-opacity:1;paint-order:markers fill stroke"
             transform="translate(-32.111462)"
             d="m -102.26647,45.005909 h 6.977012 v 9.973711 h -6.977012 z" />
          <path
             id="rect2270"
             style="fill:none;fill-opacity:1;stroke:#000000;stroke-width:0.561536;stroke-linecap:square;stroke-linejoin:miter;stroke-miterlimit:4;stroke-dasharray:none;stroke-opacity:1;paint-order:markers fill stroke"
             transform="translate(-25.253033)"
             d="m -102.26647,45.005909 h 6.977012 v 9.973711 h -6.977012 z" />
        </g>
        <path
           id="rect3308"
           style="fill:#ffffff;fill-opacity:1;stroke:none;stroke-width:0.999887;stroke-linecap:square;stroke-linejoin:miter;stroke-miterlimit:4;stroke-dasharray:none;stroke-opacity:1;paint-order:markers fill stroke"
           d="M 52.782,52.715427 H 72.712758 V 67.083141 H 52.782 Z" />
        <path
           id="rect2288"
           style="fill:#000000;fill-opacity:1;stroke:#000000;stroke-width:0.311153;stroke-linecap:square;stroke-linejoin:miter;stroke-miterlimit:4;stroke-dasharray:none;stroke-opacity:1;paint-order:markers fill stroke"
           d="m 55.619007,57.501616 h 4.376819 c 0.215436,0 0.388864,0.173435 0.388864,0.388866 0,0.215431 -0.173428,0.388866 -0.388864,0.388866 h -4.376819 c -0.215435,0 -0.388864,-0.173435 -0.388864,-0.388866 0,-0.215431 0.173429,-0.388866 0.388864,-0.388866 z" />
        <path
           id="rect2292"
           style="fill:#000000;fill-opacity:1;stroke:#000000;stroke-width:0.311153;stroke-linecap:square;stroke-linejoin:miter;stroke-miterlimit:4;stroke-dasharray:none;stroke-opacity:1;paint-order:markers fill stroke"
           d="m 55.619007,64.642773 h 4.376819 c 0.215436,0 0.388864,0.173433 0.388864,0.388864 0,0.215432 -0.173428,0.388866 -0.388864,0.388866 h -4.376819 c -0.215435,0 -0.388864,-0.173434 -0.388864,-0.388866 0,-0.215431 0.173429,-0.388864 0.388864,-0.388864 z" />
        <path
           id="rect2294"
           style="fill:#000000;fill-opacity:1;stroke:#000000;stroke-width:0.224344;stroke-linecap:square;stroke-linejoin:miter;stroke-miterlimit:4;stroke-dasharray:none;stroke-opacity:1;paint-order:markers fill stroke"
           d="m 53.161688,55.600757 h 9.291442 c 0.163014,0 0.294263,0.131235 0.294263,0.29426 v 0.09809 c 0,0.163021 -0.131235,0.29426 -0.294263,0.29426 h -9.291442 c -0.163028,0 -0.294262,-0.131235 -0.294262,-0.29426 v -0.09809 c 0,-0.163021 0.131234,-0.29426 0.294262,-0.29426 z" />
        <path
           id="rect2300"
           style="fill:#000000;fill-opacity:1;stroke:#000000;stroke-width:0.311153;stroke-linecap:square;stroke-linejoin:miter;stroke-miterlimit:4;stroke-dasharray:none;stroke-opacity:1;paint-order:markers fill stroke"
           d="m 65.498975,57.501616 h 4.37682 c 0.215431,0 0.388866,0.173435 0.388866,0.388866 0,0.215431 -0.173435,0.388866 -0.388866,0.388866 h -4.37682 c -0.215436,0 -0.388865,-0.173435 -0.388865,-0.388866 0,-0.215431 0.173429,-0.388866 0.388865,-0.388866 z" />
        <path
           id="rect2286"
           style="fill:none;fill-opacity:1;stroke:#000000;stroke-width:0.808925;stroke-linecap:square;stroke-linejoin:miter;stroke-miterlimit:4;stroke-dasharray:none;stroke-opacity:1;paint-order:markers fill stroke"
           d="M 52.782,52.715425 H 62.832789 V 67.083136 H 52.782 Z" />
        <path
           id="rect2290"
           style="fill:#000000;fill-opacity:1;stroke:#000000;stroke-width:0.311153;stroke-linecap:square;stroke-linejoin:miter;stroke-miterlimit:4;stroke-dasharray:none;stroke-opacity:1;paint-order:markers fill stroke"
           d="m 55.619007,61.072196 h 4.376819 c 0.215436,0 0.388864,0.173433 0.388864,0.388864 0,0.215431 -0.173428,0.388866 -0.388864,0.388866 h -4.376819 c -0.215435,0 -0.388864,-0.173435 -0.388864,-0.388866 0,-0.215431 0.173429,-0.388864 0.388864,-0.388864 z" />
        <path
           id="rect2298"
           style="fill:none;fill-opacity:1;stroke:#000000;stroke-width:0.808925;stroke-linecap:square;stroke-linejoin:miter;stroke-miterlimit:4;stroke-dasharray:none;stroke-opacity:1;paint-order:markers fill stroke"
           d="M 62.661968,52.715425 H 72.71276 V 67.083136 H 62.661968 Z" />
        <path
           id="rect2302"
           style="fill:#000000;fill-opacity:1;stroke:#000000;stroke-width:0.311153;stroke-linecap:square;stroke-linejoin:miter;stroke-miterlimit:4;stroke-dasharray:none;stroke-opacity:1;paint-order:markers fill stroke"
           d="m 65.498975,61.072196 h 4.37682 c 0.215431,0 0.388866,0.173433 0.388866,0.388864 0,0.215431 -0.173435,0.388866 -0.388866,0.388866 h -4.37682 c -0.215436,0 -0.388865,-0.173435 -0.388865,-0.388866 0,-0.215431 0.173429,-0.388864 0.388865,-0.388864 z" />
        <path
           id="rect2304"
           style="fill:#000000;fill-opacity:1;stroke:#000000;stroke-width:0.311153;stroke-linecap:square;stroke-linejoin:miter;stroke-miterlimit:4;stroke-dasharray:none;stroke-opacity:1;paint-order:markers fill stroke"
           d="m 65.498975,64.642773 h 4.37682 c 0.215431,0 0.388866,0.173433 0.388866,0.388864 0,0.215432 -0.173435,0.388866 -0.388866,0.388866 h -4.37682 c -0.215436,0 -0.388865,-0.173434 -0.388865,-0.388866 0,-0.215431 0.173429,-0.388864 0.388865,-0.388864 z" />
        <path
           id="rect2306"
           style="fill:#000000;fill-opacity:1;stroke:#000000;stroke-width:0.224344;stroke-linecap:square;stroke-linejoin:miter;stroke-miterlimit:4;stroke-dasharray:none;stroke-opacity:1;paint-order:markers fill stroke"
           d="m 63.041656,55.600757 h 9.29144 c 0.16302,0 0.29426,0.131235 0.29426,0.29426 v 0.09809 c 0,0.163021 -0.131234,0.29426 -0.29426,0.29426 h -9.29144 c -0.163028,0 -0.294263,-0.131235 -0.294263,-0.29426 v -0.09809 c 0,-0.163021 0.131235,-0.29426 0.294263,-0.29426 z" />
      </g>
      <circle
         style="fill:#ffffff;fill-opacity:1;stroke:#000000;stroke-width:0.307527;stroke-linecap:round;stroke-miterlimit:4;stroke-dasharray:none;stroke-opacity:1;paint-order:markers fill stroke"
         id="circle1822"
         cx="-60.086098"
         cy="40.745453"
         r="3.45366"
         transform="scale(-1,1)" />
      <rect
         style="fill:#ffffff;fill-opacity:1;stroke:none;stroke-width:1.44343;stroke-linecap:round;stroke-linejoin:bevel;stroke-miterlimit:4;stroke-dasharray:none;stroke-opacity:1;paint-order:markers fill stroke"
         id="rect1826"
         width="1.8375976"
         height="0.20473836"
         x="-2.3898196"
         y="71.891876"
         ry="0.10236918"
         transform="matrix(-0.49999998,0.86602541,0.86602541,0.49999998,0,0)" />
      <rect
         style="fill:#ffffff;fill-opacity:1;stroke:none;stroke-width:1.27657;stroke-linecap:round;stroke-linejoin:bevel;stroke-miterlimit:4;stroke-dasharray:none;stroke-opacity:1;paint-order:markers fill stroke"
         id="rect1828"
         width="1.4373287"
         height="0.20473836"
         x="-0.96685636"
         y="72.705399"
         ry="0.10236918"
         transform="matrix(-0.49999998,0.86602541,0.86602541,0.49999998,0,0)" />
      <rect
         style="fill:#ffffff;fill-opacity:1;stroke:none;stroke-width:1.0748;stroke-linecap:round;stroke-linejoin:bevel;stroke-miterlimit:4;stroke-dasharray:none;stroke-opacity:1;paint-order:markers fill stroke"
         id="rect1830"
         width="1.0188659"
         height="0.20473836"
         x="0.19351994"
         y="71.316803"
         ry="0.10236918"
         transform="matrix(-0.49999998,0.86602541,0.86602541,0.49999998,0,0)" />
      <rect
         style="fill:#ffffff;fill-opacity:1;stroke:none;stroke-width:1.0748;stroke-linecap:round;stroke-linejoin:bevel;stroke-miterlimit:4;stroke-dasharray:none;stroke-opacity:1;paint-order:markers fill stroke"
         id="rect1832"
         width="1.0188659"
         height="0.20473836"
         x="-0.18565056"
         y="73.670311"
         ry="0.10236918"
         transform="matrix(-0.49999998,0.86602541,0.86602541,0.49999998,0,0)" />
      <g
         id="g1778"
         style="opacity:1"
         transform="translate(0,-1.5176637)">
        <path
           style="color:#000000;font-style:normal;font-variant:normal;font-weight:normal;font-stretch:normal;font-size:medium;line-height:normal;font-family:sans-serif;font-variant-ligatures:normal;font-variant-position:normal;font-variant-caps:normal;font-variant-numeric:normal;font-variant-alternates:normal;font-variant-east-asian:normal;font-feature-settings:normal;font-variation-settings:normal;text-indent:0;text-align:start;text-decoration:none;text-decoration-line:none;text-decoration-style:solid;text-decoration-color:#000000;letter-spacing:normal;word-spacing:normal;text-transform:none;writing-mode:lr-tb;direction:ltr;text-orientation:mixed;dominant-baseline:auto;baseline-shift:baseline;text-anchor:start;white-space:normal;shape-padding:0;shape-margin:0;inline-size:0;clip-rule:nonzero;display:inline;overflow:visible;visibility:visible;isolation:auto;mix-blend-mode:normal;color-interpolation:sRGB;color-interpolation-filters:linearRGB;solid-color:#000000;solid-opacity:1;vector-effect:none;fill:#291611;fill-opacity:1;fill-rule:nonzero;stroke:none;stroke-width:1.21413;stroke-linecap:butt;stroke-linejoin:miter;stroke-miterlimit:4;stroke-dasharray:none;stroke-dashoffset:0;stroke-opacity:1;color-rendering:auto;image-rendering:auto;shape-rendering:auto;text-rendering:auto;enable-background:accumulate;stop-color:#000000;stop-opacity:1"
           d="M 77.547001,20.166547 45.952364,74.890062 h 32.293301 z"
           id="path1780" />
        <path
           style="color:#000000;font-style:normal;font-variant:normal;font-weight:normal;font-stretch:normal;font-size:medium;line-height:normal;font-family:sans-serif;font-variant-ligatures:normal;font-variant-position:normal;font-variant-caps:normal;font-variant-numeric:normal;font-variant-alternates:normal;font-variant-east-asian:normal;font-feature-settings:normal;font-variation-settings:normal;text-indent:0;text-align:start;text-decoration:none;text-decoration-line:none;text-decoration-style:solid;text-decoration-color:#000000;letter-spacing:normal;word-spacing:normal;text-transform:none;writing-mode:lr-tb;direction:ltr;text-orientation:mixed;dominant-baseline:auto;baseline-shift:baseline;text-anchor:start;white-space:normal;shape-padding:0;shape-margin:0;inline-size:0;clip-rule:nonzero;display:inline;overflow:visible;visibility:visible;isolation:auto;mix-blend-mode:normal;color-interpolation:sRGB;color-interpolation-filters:linearRGB;solid-color:#000000;solid-opacity:1;vector-effect:none;fill:#000000;fill-opacity:1;fill-rule:nonzero;stroke:none;stroke-width:1.21413;stroke-linecap:butt;stroke-linejoin:miter;stroke-miterlimit:4;stroke-dasharray:none;stroke-dashoffset:0;stroke-opacity:1;color-rendering:auto;image-rendering:auto;shape-rendering:auto;text-rendering:auto;enable-background:accumulate;stop-color:#000000;stop-opacity:1"
           d="m 78.890748,16.86235 -1.869264,3.000931 -32.121093,55.634766 h 33.960937 z m -1.923951,5.522416 0.664062,51.898437 H 47.003906 Z"
           id="path1782"
           sodipodi:nodetypes="ccccccccc" />
      </g>
      <path
         style="fill:#ffffff;fill-opacity:1;stroke:none;stroke-width:0.252944px;stroke-linecap:butt;stroke-linejoin:miter;stroke-opacity:1"
         d="m 76.934043,20.923837 -29.930137,51.841704 7.96812,-2e-6 17.480167,-40.150633 1.277149,2.212088 -13.973749,37.938545 h 7.008071 l 7.961073,-36.840624 1.739975,-1.062169 0.654974,-2.046914 z"
         id="path1784"
         sodipodi:nodetypes="ccccccccccc" />
      <circle
         style="fill:#ffffff;fill-opacity:1;stroke:#000000;stroke-width:0.576734;stroke-linecap:round;stroke-miterlimit:4;stroke-dasharray:none;stroke-opacity:1;paint-order:markers fill stroke"
         id="path1702"
         cx="-43.682575"
         cy="63.458935"
         r="6.4769645"
         transform="scale(-1,1)" />
      <rect
         style="fill:#ffffff;fill-opacity:1;stroke:none;stroke-width:2.62806;stroke-linecap:round;stroke-linejoin:bevel;stroke-miterlimit:4;stroke-dasharray:none;stroke-opacity:1;paint-order:markers fill stroke"
         id="rect1726"
         width="3.3457417"
         height="0.37277022"
         x="22.80508"
         y="71.895012"
         ry="0.18638511"
         transform="matrix(-0.5,0.8660254,0.8660254,0.5,0,0)" />
      <rect
         style="fill:#ffffff;fill-opacity:1;stroke:none;stroke-width:2.62806;stroke-linecap:round;stroke-linejoin:bevel;stroke-miterlimit:4;stroke-dasharray:none;stroke-opacity:1;paint-order:markers fill stroke"
         id="rect1710"
         width="3.3457417"
         height="0.37277022"
         x="20.354666"
         y="69.572365"
         ry="0.18638511"
         transform="matrix(-0.5,0.8660254,0.8660254,0.5,0,0)" />
      <rect
         style="fill:#ffffff;fill-opacity:1;stroke:none;stroke-width:2.32428;stroke-linecap:round;stroke-linejoin:bevel;stroke-miterlimit:4;stroke-dasharray:none;stroke-opacity:1;paint-order:markers fill stroke"
         id="rect1720"
         width="2.6169662"
         height="0.37277022"
         x="23.612965"
         y="66.929245"
         ry="0.18638511"
         transform="matrix(-0.5,0.8660254,0.8660254,0.5,0,0)" />
      <rect
         style="fill:#ffffff;fill-opacity:1;stroke:none;stroke-width:1.95691;stroke-linecap:round;stroke-linejoin:bevel;stroke-miterlimit:4;stroke-dasharray:none;stroke-opacity:1;paint-order:markers fill stroke"
         id="rect1722"
         width="1.8550646"
         height="0.37277022"
         x="17.132872"
         y="70.744179"
         ry="0.18638511"
         transform="matrix(-0.5,0.8660254,0.8660254,0.5,0,0)" />
      <rect
         style="fill:#ffffff;fill-opacity:1;stroke:none;stroke-width:1.95691;stroke-linecap:round;stroke-linejoin:bevel;stroke-miterlimit:4;stroke-dasharray:none;stroke-opacity:1;paint-order:markers fill stroke"
         id="rect1724"
         width="1.8550646"
         height="0.37277022"
         x="20.002111"
         y="67.61409"
         ry="0.18638511"
         transform="matrix(-0.5,0.8660254,0.8660254,0.5,0,0)" />
      <circle
         style="fill:#ffffff;fill-opacity:1;stroke:#000000;stroke-width:0.145897;stroke-linecap:round;stroke-miterlimit:4;stroke-dasharray:none;stroke-opacity:1;paint-order:markers fill stroke"
         id="circle1836"
         cx="-68.711266"
         cy="29.555899"
         r="1.6384819"
         transform="scale(-1,1)" />
      <circle
         style="fill:#ffffff;fill-opacity:1;stroke:#000000;stroke-width:0.0640017;stroke-linecap:round;stroke-miterlimit:4;stroke-dasharray:none;stroke-opacity:1;paint-order:markers fill stroke"
         id="circle1862"
         cx="-73.33992"
         cy="23.302841"
         r="0.71876436"
         transform="scale(-1,1)" />
    </g>
  </g>
</svg>
